<svg xmlns="http://www.w3.org/2000/svg" viewBox="0 0 52.55 50.45"><defs><style>.cls-1{fill:#d0d9ff;}</style></defs><g id="Layer_2" data-name="Layer 2"><g id="Layer_1-2" data-name="Layer 1"><path class="cls-1" d="M52.55,6.31v21a2.13,2.13,0,0,1-2.1,2.1H41a2.13,2.13,0,0,1-2.1-2.1v-21a2,2,0,0,1,.62-1.48A2,2,0,0,1,41,4.2h9.46a2,2,0,0,1,1.48.63A2,2,0,0,1,52.55,6.31Zm-4.2,4.2a2.08,2.08,0,0,0-2.11-2.1A2,2,0,0,0,44.77,9a2,2,0,0,0-.63,1.49A2.11,2.11,0,0,0,47.74,12,2.08,2.08,0,0,0,48.35,10.51ZM36.79,6.31V27.36a2,2,0,0,1-.6,1.43,2.14,2.14,0,0,1-1.41.67c-.52,0-1.36.69-2.49,1.94S30,34,29,35.37a47.67,47.67,0,0,1-3.32,3.94,5.26,5.26,0,0,0-1,1.58,11.44,11.44,0,0,0-.57,1.59c-.1.41-.25,1.07-.45,2s-.29,1.52-.41,2a9.33,9.33,0,0,1-.64,1.71,5.38,5.38,0,0,1-1.11,1.64,2,2,0,0,1-1.48.63,9.78,9.78,0,0,1-2.71-.35,7.11,7.11,0,0,1-2-.85A4.49,4.49,0,0,1,14,47.92a7,7,0,0,1-.79-1.48,7.87,7.87,0,0,1-.4-1.64,13.29,13.29,0,0,1-.16-1.48c0-.33,0-.75,0-1.28a10.76,10.76,0,0,1,.31-2.5,13.2,13.2,0,0,1,.63-2c.21-.48.51-1.09.9-1.84l.33-.59a6,6,0,0,0,.36-.72,6.1,6.1,0,0,0,.26-.79H6.31a6.06,6.06,0,0,1-4.44-1.87A6.06,6.06,0,0,1,0,27.33a7.18,7.18,0,0,1,1.81-4.9,7.88,7.88,0,0,1-.5-2.49,6.82,6.82,0,0,1,1.42-4.5,6.64,6.64,0,0,1,0-3.85A6.37,6.37,0,0,1,4.5,8.51,7.88,7.88,0,0,1,6.11,2.56C7.51.9,9.67,0,12.58,0h4.24a24.41,24.41,0,0,1,4.73.51c1.7.34,3,.66,4,1s2.27.73,3.95,1.3A24.09,24.09,0,0,0,34.68,4.2a2.23,2.23,0,0,1,1.48.64A2,2,0,0,1,36.79,6.31Z"/></g></g></svg>