<svg xmlns="http://www.w3.org/2000/svg" xmlns:xlink="http://www.w3.org/1999/xlink" viewBox="0 0 742.15 378.78"><defs><style>.cls-1{fill:#fbfbfb;}.cls-2{fill:#fdfdfd;}.cls-3{fill:#454545;}.cls-4{fill:#1d1d1d;}.cls-5{fill:#383838;}.cls-6{fill:#373737;}.cls-7{fill:#fefefe;}.cls-8{fill:#fafafa;}.cls-9{fill:#f5f5f5;}.cls-10{fill:#252525;}.cls-11{fill:#dcdcdc;}.cls-12{fill:#1b1b1b;}.cls-13{fill:#262626;}.cls-14{fill:#eaeaea;}.cls-15{fill:#e7e7e7;}.cls-16{fill:#d0d0d0;}.cls-17{fill:#e4e4e4;}.cls-18{fill:#2d2d2d;}.cls-19{fill:#a5a5a5;}.cls-20{fill:#fcfcfc;}.cls-21{fill:#060606;}.cls-22{fill:#d6d6d6;}.cls-23{fill:#010101;}.cls-24{fill:#020202;}.cls-25{fill:#030303;}.cls-26{fill:#0b0b0b;}.cls-27{fill:#050505;}.cls-28{fill:#0f0f0f;}.cls-29{fill:#070707;}.cls-30{fill:#131313;}.cls-31{fill:#0c0c0c;}.cls-32{fill:#101010;}.cls-33{fill:#5d5d5d;}.cls-34{fill:#040404;}.cls-35{fill:#080808;}.cls-36{fill:#171717;}.cls-37{fill:#151515;}.cls-38{fill:#0e0e0e;}.cls-39{fill:#848484;}.cls-40{mask:url(#mask);}.cls-41{fill:#313640;}.cls-42{filter:url(#luminosity-invert);}</style><filter id="luminosity-invert" filterUnits="userSpaceOnUse" color-interpolation-filters="sRGB"><feColorMatrix values="-1 0 0 0 1 0 -1 0 0 1 0 0 -1 0 1 0 0 0 1 0"/></filter><mask id="mask" x="0" y="0" width="743.06" height="379.68" maskUnits="userSpaceOnUse"><g class="cls-42"><path d="M348.87,379.68c-2.37-.67-4.78-1.23-7.11-2-22-7.64-45.32-37.52-29.49-67.36,2.61-4.93,4.65-9.41,9.21-12.72,1.42-1,1.83-3.46,3-5.94-12.72,0-24.48.08-36.23,0-44.64-.36-89.2-2.31-133.35-9.12-30.61-4.73-61.25-9.94-90.36-21.25-6.43-2.51-12.42-6.17-18.88-8.58-22-8.24-32.53-27.23-43.47-45.88-.27-.46-.87-.72-1.31-1.07v-6.34C6.19,183,20,176,34.12,170c25.74-10.87,52.89-17.07,80.25-22.29,8.95-1.7,18-3,27-4.42v1.58c-32.52,4.06-63.55,14.37-95,22.79-12.86,3.44-23,11.45-32.24,20.59a10.15,10.15,0,0,0-2.74,7.3c1.35,12.14,8.4,20.34,19,25.85A77.88,77.88,0,0,1,38,226.52c-1-.1-2.23.13-3-.34-6.43-3.86-12.84-7.74-19.12-11.84-3.11-2-5.91-4.53-8.85-6.82l-1,.89a89.71,89.71,0,0,0,5.39,8c1.89,2.26,5,3.71,6.36,6.17a65.06,65.06,0,0,0,24.76,24.54c13.88,8,28.84,12.07,44.21,15.27a7.31,7.31,0,0,0,4.52-.8c3.79-2,8.12-1.11,12.11-2.57,1.92-.7,4.87,1.87,7.47,2.43,3.53.77,7.18,1,10.76,1.52,2.94.46,5.85,1.08,9.38,1.74,2.65-3.46,7.3-3.09,11.68-2.67,2.85.27,2.71-1.4,3.35-3.05.93-2.39-.42-3-2.27-3.51-1.6-.39-3.19-.82-4.81-1.15-8.61-1.73-17.25-3.34-25.84-5.17-4.92-1.06-9.79-2.41-14.65-3.74-2.6-.71-5.13-1.65-7.68-2.49,2.24.13,4.51.09,6.72.44,24.79,3.87,49.49,8.37,74.37,11.51,17.85,2.25,35.92,2.69,53.89,3.94,1.35.13,2.7.34,4.05.36,29.08.38,58.17.94,87.26,1,14.83,0,29.72-.2,44.49-1.44,28.81-2.41,57.57-5.39,86.31-8.55,38.33-4.23,75.05-15.66,111.92-26.19,10.67-3.05,20.21-8.55,27.52-17.31,3.66-4.38,6.22-8.76,2-14.37-1.3-1.74-1.86-4.09-2.57-6.22a14.43,14.43,0,0,0-8.14-9.1c-6.85-3.06-13.55-6.53-20.52-9.31-19.37-7.72-39.73-11.73-60.1-15.87-28.83-5.87-57.88-10-87.11-13.07-3.12-.32-5.22.7-7.46,2.89A125.51,125.51,0,0,1,390,153c-4.72,3.44-8.35,3.76-12,2.7l25.52-16-1-2.21a36.88,36.88,0,0,0-6.13,2c-8,4.14-15.82,8.6-23.86,12.64-1.94,1-4.46.83-6.71,1.19l-.13-.87,27.08-14-.55-.92L381.6,136c4-1.47,8-4,12-4.12,4.26-.15,8.62,1.91,12.9,3.13,1.78.51,3.42,1.77,5.2,2,22.14,2.71,44.31,5.12,66.42,8a422.78,422.78,0,0,1,70.48,15.66c2.6.8,4.41.53,6-1.25,5.84-6.51,11.59-13.1,17.62-19.95-1.2-1.83-3.73-5.2-5.75-8.86-7.45-13.46-1.23-36,14.82-44.39C596,78.52,610.81,71.05,625.29,63c16.84-9.34,33.39-19.19,50.46-29.05-1.44-2.56-2.75-5-4.21-7.44-1.27-2.12-1.46-4,1-5.31,5.56-2.91,11-6.15,16.82-8.4,6-2.33,10.33,1,13.11,6.14,4.16-2.28,7.8-4.84,11.82-6.38,12.69-4.87,23.18.12,27.92,12.87.12.34.59.55.9.82v7.25c-.94,2.26-2,4.48-2.79,6.8-2.44,7.22-6.85,12.44-13.22,17C713.6,67,701,77.73,687.89,87.86,675,97.8,662,107.51,649.06,117.36c-1.54,1.17-3.55,2.34-4.17,4-2.9,7.53-9.38,11.94-14.61,17.41-1.32,1.38-3.62,2.75-5.37,2.62a11,11,0,0,0-9.25,3.52c-4.52,4.67-10.23,4.66-16,3.84a11.06,11.06,0,0,0-10.15,3.5c-5.73,5.74-11.7,11.24-17.79,17,4.74,2.67,9.4,5.11,13.88,7.84,10.59,6.45,15.34,14.93,13.32,24.42a44.66,44.66,0,0,1-4.14,11.35C585.53,230.49,573,244.75,554.25,253c-14.92,6.56-30,12.52-45.88,16.07a16.19,16.19,0,0,0-9.62,6.08C492,283.62,485,291.9,478,300.2a16.22,16.22,0,0,1-3.08,2.29,21.12,21.12,0,0,1,1.85-4.47c2.32-3.27,5.43-6.09,7.21-9.6a23.28,23.28,0,0,1,6-7.85c1.83-1.53,2.67-4.24,4.44-7.25-5.3,1.25-9.63.81-12.23,5.82-2.22,4.27-6,7.74-9,11.56l-2.74,2.55c-.56.16-1.59.25-1.62.49-1,7-7,9.34-11.95,12.66L441.14,317c2.83,3,4.9,2,7.17,0a40.09,40.09,0,0,1,5.43-3.52l1.11,1.45L434.6,331.49c1.81,4,4.28,2.67,6.32.76,2.5-2.34,4.16-5.94,7-7.47,6.7-3.61,11-9.45,16.15-14.62,1.64-1.66,4.67-1.93,7.07-2.84-10.77,10.49-21.11,21.48-32.45,31.3a261.85,261.85,0,0,1-29.91,21.83c-4.64,3-10.63,3.89-16,5.69-1,.33-2.3.13-3,.72-9.07,7.26-20.41,9-30.89,12.82ZM428.74,310l-.07,2.72,4.45,1.81c-6.3,3.49-10.13,8-7.82,15.37l5-1.94c.69.41,1.88,1.3,2,1.17,2.2-2.3,4.26-4.73,6.35-7.13l1.05-3.67c-.35-2.85-.71-5.69-1.06-8.54l.79-1.68c1.05-1.06,2-2.18,3.15-3.16,8.26-7.23,19.21-10.95,26.15-19.95a3.09,3.09,0,0,1,2.35-1.18c5.85,1.22,6.45-4.13,9.43-6.46l-.6-1.3-18.41,4.81-.42,3.63-1.1.59c-1.07-1.43-2.13-2.87-3.43-4.62-1.43.48-3.24,1.16-5.11,1.66-1.21.33-2.51.33-3.76.55-4.81.86-9.67,1.54-14.37,2.8-.83.22-.54,3.46-1.58,4.31-3.63,3,.91,4.8.95,7.3.05,2.65-.65,7.32,4.38,7.86l-.31,2.12-5.42,2.84a3.76,3.76,0,0,1-.58,0l-1.32.12A.94.94,0,0,0,428.74,310Zm-53.53,25.07c-1.41-2.24-2.83-4.47-4.33-6.84-1.27,4.15-.84,6.35,1.44,8l-4.42,6-22.44-8c-.4-1-1-2.65-1.68-4.28l-1,.24c-.13,1.88-.26,3.76-.39,5.67l-2.4-1.76c.5,4,.93,7.53,1.39,11.32l-4.39-3-.68.8,5.92,8.16-7.1.73,10.72,8.09-.25.56-5-1.69c-3.5,1.86-4.78,4.55-2.84,8.13a13.3,13.3,0,0,0,9,7.23c12.1,2.9,22.53-1.16,32.41-7.38,5.18-3.25,8.31-8.9,7.12-14.38-.95-4.38-3.21-9.94-8.85-11.48.26-1.49.57-2.94.75-4.42C378.51,333.81,376.93,334.27,375.21,335.06ZM651.05,102.25c1.16-1.51,3.25-3,3.29-4.52.08-3.28,1.25-4.22,4-6.3,5.5-4.19,10.36-9.29,16.37-13,5.42-3.39,10.54-7.25,15.9-11-.37-2.39-1.27-4.93,2.66-5.6,1.44-.24,2.56-2.08,4-2.86.44-.24,1.72.46,2.18,1.06a7.32,7.32,0,0,1,.69,2.57c1.12-1.85,1-3.72,1.48-5.44,1-3.64,6.46-5,8.41-2.66,5.55-3,11.1-5.79,16.43-9,1.06-.64,1.5-2.67,1.81-4.15.49-2.31-.12-5.28,1.12-6.88,1.37-1.76,4.31-2.3,6.88-3.51-1-4-3.32-7.63-8.14-9.44-.29,1.14-.23,2.25-.76,2.8-5.55,5.86-12.59,9.37-20,12.12a6,6,0,0,1-4.69-.88,82.88,82.88,0,0,1-7.1-5.86c-4.69,2.3-9.32,4.55-13.92,6.84-6.75,3.36-13.55,6.64-20.2,10.19a69.07,69.07,0,0,0-8,5.46c-1.57,1.15-3.72,2.19-4.35,3.78-1.65,4.13-4.67,4.92-8,4.39-1,3.06-1.82,5.69-2.67,8.33-4.71-2-9.16,0-12.95,2.7-4.35,3.13-7.27,8.73-14.3,6.58A34.31,34.31,0,0,1,632,91.6c5.05,7,8.66,14.48,6.38,24.37l9.59-8.88c2.74-1.64,6.86-1.85,7.36-7.11Zm-75.83,10.2c.73,4.76,1.21,9.36,2.24,13.84.35,1.53,2.08,2.74,3.17,4.1,1.24-1.7,5,.84,5.15-3.18.05-1,3.08-2.88,3.89-2.51,3.18,1.44,4.21-.85,4.23-2.62s-1.22-4.2-2.62-4.88c-3.71-1.8-6.52.19-8.94,3.31.77-2.43,1.7-5.51,3.53-6.2,3.34-1.27,7.15-1,9.73,2.53,1.36,1.86,2.6,4,4.44,5.24,1.08.7,3.23-.36,4.9-.45,2.15-.11,4.31,0,6.47,0l7,2.46C624,114,624,114,620.39,104.15l-.16-.42c-3.66-10.38-16.15-17.86-27.14-16.22-3.44.51-6.33,2.64-9.36,3.74-8.72,3.15-15.18,11.43-14.34,21.2ZM632,116.22c5.59-3.12,4.41-7.49,3-11.67C631,92.88,623.13,84.94,611.34,81c-5.24-1.75-6.92-1.08-9.73,3.84,15.08,2.83,24.58,12.06,28.25,27.31C630.21,113.61,631.3,114.88,632,116.22Zm-233.73,235,2,.83c1.64-3,3.67-5.81,4.84-8.95,3.33-9,.55-18.07.24-27.13-.17-5.09-2-8.53-8.64-10.08C403.05,321.11,405.86,336.06,398.31,351.19Zm284.46-320,13.59-7.73c-2.31-5.66-5-6.47-10.53-3.75C679.64,22.68,679.07,24.4,682.77,31.14Zm18.76-4.65,1.23,2.05L727,15.2c-4.5-2-11.3-.59-16,3.7C708,21.57,704.74,23.92,701.53,26.49ZM389.47,321c1.55,6.37,2.9,11.95,4.26,17.53l1.23-.28C392.79,332.85,397.23,326,389.47,321Zm-10-16.73-1.25,1.27c.65,4.5,3.48,7.15,7.75,6.47Zm-28.15,20.09c-4.54,2.06-5.38,4.57-2.92,8.61Z"/><path d="M431.34.91c1.31.55,2.64,1.07,3.94,1.66,7.63,3.45,10.78,9.17,8.83,17.52a79.65,79.65,0,0,1-5.06,14.37c-2.45,5.46-7.13,8.29-12.68,10.67-23.05,9.92-45.88,20.34-68.78,30.59-10.14,4.54-20.25,9.11-31.19,14,9.41,11.15,18.82,21.29,27,32.34,6,8.13,12.61,13.57,23.11,13,.4,0,.84.54,1.26.84-1.94,0-3.88.16-5.82.11q-19.27-.47-38.55-1l-5.86-2.74c-.71-.82-1.79-1.54-2.07-2.49-2-6.61-6.77-8.84-13.31-8a68.31,68.31,0,0,1-20.19,0c-3.46-.59-6.4-.63-8.4,1.42-3.14,3.21-5.41,7.26-8,11l-7.25-.84c1.51-1.17,3.39-2.07,4.48-3.54,8.55-11.59,20-15.84,34-13.85,1.19.17,2.39.22,4.32.39-3.82-4.44-7.22-8.48-10.76-12.4-.58-.64-2-1.26-2.62-1-4.19,1.81-8.42,3-12,6.69-3.82,4-9.21,6.63-14.31,9-6.46,3-13.2,6.89-20,7.39-10,.74-20.54.26-29.64-5.61a29.07,29.07,0,0,1-8.11-40.53C220.13,70.32,228.55,64.33,240,61c22.49-6.64,44.47-15,66.74-22.38,17.42-5.79,34.95-11.25,52.43-16.88,1.4-.45,2.76-1.05,4.62-1.76-.8-1.4-1.37-2.55-2.08-3.6-3.23-4.83-2.91-6.65,2.65-8.7,6.18-2.28,12.61-3.92,18.92-5.86a14.61,14.61,0,0,0,1.84-.86h7.25c2.74,1.75,5.41,3.64,8.25,5.19a5.85,5.85,0,0,0,4,.61C410.84,4.92,417,2.87,423.18.91ZM403.55,26.64c-6.95-2.84-15.43.55-18.42-8.65-6.54,1.85-12.83,3.41-19,5.45-5,1.66-9.86,3.87-14.78,5.85-10.49,4.25-20.94,8.64-31.5,12.71-3.73,1.44-8.28,3.76-11.51,2.73-3.88-1.23-5.78.47-8.58,1.57l1.85,2.13c-5.45,1.81-11.2,2.7-15.77,5.5-6,3.69-12.31,3.82-18.8,4.21-2.25.14-4.5.45-6.76.69l-.11,1.3c12.68,3.76,18.36,13.82,22.65,25.39,5.19-1.78,10.13-3.25,14.87-5.18a49,49,0,0,0,8.33-4.73,86,86,0,0,0,7.07-5.42c1.23-1,2.31-2.19,3.44-3.3,2.7-2.68,4.92-6.51,8.17-7.86,22.58-9.39,45.4-18.24,68.1-27.35C396.49,30.21,400,28.33,403.55,26.64ZM243.91,93.57c3.41,1.68,5.82,3.25,8.46,4.05,2.12.64,4.89,1.15,6.72.3,3.64-1.68,6-11.29,3.59-14.44A171.81,171.81,0,0,0,251,70.57,7,7,0,0,0,247.8,69c-9.12-2.36-17.69-1.65-24.68,5.39-2.15,2.17-3.26,5.38-5.39,7.58-6.6,6.8-4.5,14.6-2.44,22.08.72,2.62,2,6.91,6.83,6,.5-.1,1.14,1,1.82,1.23,2.78.94,5.6,1.76,8.4,2.62l.79-1.49-5.2-6.62c.61-.55,1.43-1.82,2.56-2.21,3.95-1.4,3.17-4,1-5.71-1.79-1.37-4.66-1.35-7.33-2,1.3-.56,2.89-1.81,4.52-1.87,8.06-.26,7.61,7.67,10.9,12.52C241.07,102,242.34,98.24,243.91,93.57Zm2.87-28.1c10.14,3.72,16.36,11,21.24,19.73a47,47,0,0,0,4.84,7.07c.38.46,2.68.17,3.1-.45A6.43,6.43,0,0,0,276.6,88c-.79-11.1-7.37-18.36-16.13-24.18C254.67,60,252.76,60.1,246.78,65.47ZM394.31,8c-2.09-.58-4.32-1.91-6.25-1.57a89.32,89.32,0,0,0-14.22,3.88c-5.36,1.9-5.48,3.33-1.2,7.85C379.9,15.85,387.93,15.28,394.31,8ZM349.79,63.67l.51,1.12L360.59,60C358.58,57.45,354.67,58.7,349.79,63.67Z"/><path class="cls-1" d="M423.18.91c-6.18,2-12.34,4-18.57,5.8a5.85,5.85,0,0,1-4-.61c-2.84-1.55-5.51-3.44-8.25-5.19Z"/><path class="cls-2" d="M473.12,290.7c3.07-3.82,6.82-7.29,9-11.56,2.6-5,6.93-4.57,12.23-5.82-1.77,3-2.61,5.72-4.44,7.25a23.28,23.28,0,0,0-6,7.85c-1.78,3.51-4.89,6.33-7.21,9.6a21.12,21.12,0,0,0-1.85,4.47l-3.75,4.83c-2.4.91-5.43,1.18-7.07,2.84-5.12,5.17-9.45,11-16.15,14.62-2.85,1.53-4.51,5.13-7,7.47-2,1.91-4.51,3.23-6.32-.76l20.25-16.57-1.11-1.45a40.09,40.09,0,0,0-5.43,3.52c-2.27,2-4.34,2.95-7.17,0l15.67-10.57c4.93-3.32,10.92-5.63,11.95-12.66,0-.24,1.06-.33,1.62-.49v3.83l1.14.68c1.4-1.68,3.23-3.18,4.08-5.1S475.6,289.29,473.12,290.7Z"/><path class="cls-3" d="M275.53,134.15l-28.66,0,21.41-.8Z"/><path class="cls-4" d="M164.1,141.09c-5.54,1-11.06,2.06-16.6,3-2,.36-4.1.51-6.16.76v-1.58Z"/><path class="cls-5" d="M223.82,136.79l-18,0c5.16-.39,10.32-.82,15.48-1.13a32,32,0,0,1,4.35.33Z"/><path class="cls-6" d="M180.67,139.49l-16.26,1Z"/><path class="cls-7" d="M436.72,307.06l.31-2.12c-5-.54-4.33-5.21-4.38-7.86,0-2.5-4.58-4.33-.95-7.3,1-.85.75-4.09,1.58-4.31,4.7-1.26,9.56-1.94,14.37-2.8,1.25-.22,2.55-.22,3.76-.55,1.87-.5,3.68-1.18,5.11-1.66,1.3,1.75,2.36,3.19,3.43,4.62l1.1-.59.42-3.63,18.41-4.81.6,1.3c-3,2.33-3.58,7.68-9.43,6.46A3.09,3.09,0,0,0,468.7,285c-6.94,9-17.89,12.72-26.15,19.95-1.12,1-2.1,2.1-3.15,3.16Z"/><path class="cls-2" d="M632,116.22c-.74-1.34-1.83-2.61-2.18-4-3.67-15.25-13.17-24.48-28.25-27.31,2.81-4.92,4.49-5.59,9.73-3.84C623.13,84.94,631,92.88,635,104.55,636.45,108.73,637.63,113.1,632,116.22Z"/><path class="cls-8" d="M398.31,351.19c7.55-15.13,4.74-30.08-1.56-45.33,6.6,1.55,8.47,5,8.64,10.08.31,9.06,3.09,18.17-.24,27.13-1.17,3.14-3.2,6-4.84,8.95Z"/><path class="cls-1" d="M436.72,307.06l2.68,1-.79,1.68c-1.06.27-3.06.59-3.05.78.2,2.87.66,5.72,1.06,8.58l3.05-.82L438.62,322c-4.38-.26-5.55,4-8.35,6l-5,1.94c-2.31-7.42,1.52-11.88,7.82-15.37l-4.45-1.81,2.5-1.95c0-.28.09-.57.13-.86Z"/><path class="cls-1" d="M682.77,31.14c-3.7-6.74-3.13-8.46,3.06-11.48,5.58-2.72,8.22-1.91,10.53,3.75Z"/><path class="cls-9" d="M701.53,26.49c3.21-2.57,6.45-4.92,9.39-7.59,4.73-4.29,11.53-5.72,16-3.7L702.76,28.54Z"/><path class="cls-10" d="M439.67,318.32l-3.05.82c-.4-2.86-.86-5.71-1.06-8.58,0-.19,2-.51,3.05-.78Z"/><path class="cls-11" d="M389.47,321c7.76,5,3.32,11.85,5.49,17.25l-1.23.28C392.37,333,391,327.37,389.47,321Z"/><path class="cls-12" d="M430.27,328c2.8-2,4-6.22,8.35-6-2.09,2.4-4.15,4.83-6.35,7.13C432.15,329.25,431,328.36,430.27,328Z"/><path class="cls-13" d="M473.12,290.7c2.48-1.41,3.27.14,2.48,2s-2.68,3.42-4.08,5.1l-1.14-.68v-3.83Z"/><path class="cls-14" d="M379.47,304.27,386,312c-4.27.68-7.1-2-7.75-6.47Z"/><path class="cls-15" d="M648,107.09c-1.93-3.49,1.31-3.69,3.06-4.84l4.3-2.27C654.85,105.24,650.73,105.45,648,107.09Z"/><path class="cls-16" d="M375.21,335.06c0,2.9-1.4,2.08-2.89,1.14-2.28-1.63-2.71-3.83-1.44-8C372.38,330.59,373.8,332.82,375.21,335.06Z"/><path class="cls-17" d="M351.32,324.36,348.4,333C345.94,328.93,346.78,326.42,351.32,324.36Z"/><path class="cls-18" d="M431.17,310.76l-2.5,1.95c0-.91.05-1.82.07-2.72l.33.6.33-.6,1.31-.12Z"/><path class="cls-19" d="M429.4,310l-.33.6-.33-.6A.94.94,0,0,1,429.4,310Z"/><path d="M431.17,310.76l-.46-.89a4,4,0,0,0,.59,0C431.26,310.19,431.21,310.48,431.17,310.76Z"/><path class="cls-2" d="M246.78,65.47c6-5.37,7.89-5.51,13.69-1.66,8.76,5.82,15.34,13.08,16.13,24.18a6.43,6.43,0,0,1-.64,3.83c-.42.62-2.72.91-3.1.45A47,47,0,0,1,268,85.2C263.14,76.46,256.92,69.19,246.78,65.47Z"/><path class="cls-20" d="M394.31,8c-6.38,7.28-14.41,7.85-21.67,10.16-4.28-4.52-4.16-5.95,1.2-7.85a89.32,89.32,0,0,1,14.22-3.88C390,6.09,392.22,7.42,394.31,8Z"/><path class="cls-21" d="M333.4,135c-2.92,2.39-1.87,3.52,1.22,4.4a34.39,34.39,0,0,1,5.17,2.39l-.09,2.12-13.8,2.81c-.79-1.78-1.47-2.74-1.6-3.77a7.32,7.32,0,0,1,.62-2.87c.84-2.61,1.74-5.21,2.62-7.82Z"/><path class="cls-22" d="M349.79,63.67c4.88-5,8.79-6.22,10.8-3.69L350.3,64.79Z"/><path class="cls-23" d="M572.54,192.61c-.49,17.24-35.5,37.79-54.09,31.41,2.43-1.1,4.47-1.85,6.35-2.89,8-4.48,16.42-8.5,23.89-13.81,3.46-2.46,5.06-7.52,7.65-11.29.89-1.3,2.15-3.14,3.38-3.26C563.88,192.36,568.1,192.61,572.54,192.61Z"/><path class="cls-23" d="M341.9,229.62c-1.51,0-3,.08-4.52,0-8.71-.55-12.35-3.49-13.44-12-.19-1.45,2.92-4.65,4.66-4.77a106,106,0,0,1,17.44.6c2.37.23,9.1,10.29,8.11,12.13-.9,1.66-3.15,3-5.08,3.6-2.23.7-4.77.44-7.17.59Zm4.2-4.57c-2.36-9.39-7.08-11.9-15.05-8C335.17,226.45,338.63,228.28,346.1,225.05Z"/><path class="cls-24" d="M327,174.82c.23-.88.21-1.32.38-1.42,5.05-2.87,10-6,15.22-8.47,4.45-2.12,9.43-3.19,13.77-5.48,1.38-.73,1.48-3.89,2.63-7.3,1.17,5.18,4.55,8.78,2.22,13.21-.9,1.72-3.35,2.63-5.44,3.19,1.19-1.78,2.39-3.56,3.58-5.35-5.24.39-8,3.49-10.54,7a9.51,9.51,0,0,1-4.56,3.4,58.82,58.82,0,0,1-11,2.11C331.23,175.9,329.12,175.15,327,174.82Z"/><path class="cls-23" d="M303.43,144.38l-25.06-1.63c1.37-4.06,2.4-7.09,3.39-10,5.92.34,11.42,1,16.91.86,3.57-.07,5,1.07,4.78,4.51C303.35,139.85,303.43,141.61,303.43,144.38Z"/><path class="cls-25" d="M311.16,213.45c-1.52,7-7,9.73-10.41,14.05-2.7,3.44-6.12,4.43-11.3,3L302,217.17H285l-.78-1.13c.72-.86,1.43-2.46,2.18-2.48C294.38,213.38,302.32,213.45,311.16,213.45Z"/><path class="cls-24" d="M361,211.07c5.59-2.19,9.94-2.88,13.74,2.6,2.84,4.11,7.5,7,12,11-3.67,2.06-6.57,1.73-9.31-.72-3-2.68-5.77-5.65-8.91-8.16A70.38,70.38,0,0,0,361,211.07Z"/><path class="cls-24" d="M274,212.62c-2.9,6.29-4.92,11.67-7.89,16.46-.87,1.4-4.45,1.13-8.06,1.89,1.86-3.76,3.32-6.19,4.28-8.79.8-2.18,4.45-4.34.51-6.92.76-.88,1.43-2.4,2.3-2.52C267.61,212.39,270.18,212.62,274,212.62Z"/><path class="cls-26" d="M329.82,193.28c6.69-1.85,10-1.17,12.65,2.67-.85.58-2,1-2.5,1.76-2.73,4.25-10.32,3.94-12.85-.62-.07-.11,0-.29,0-.44Z"/><path class="cls-21" d="M310.74,190.4c3.84-3.39,9.41-3,13.31,1a32.92,32.92,0,0,1-4.35,4.83c-.68.53-3.15.2-3.4-.36-1.49-3.33-1.62-3.5-4.52-1.73a9.28,9.28,0,0,1-2.22,1.21c-.44.12-1.05-.35-1.95-.7l3.25-4.42Z"/><path class="cls-27" d="M295.69,189.6c-1.62,1.08-3.24,2.16-6,4,.36-2.41.49-3.29.79-5.35l-9,3.19c3.5-7.06,7.14-8.76,13.34-7,2.79.79,3.22,2.06,1.45,4.25Z"/><path class="cls-28" d="M355.5,200.62c-5.72.71-9.59,5.69-15.21.71,2.43-2.06,4.65-5.27,7.4-5.8C349.63,195.15,352.28,198.39,355.5,200.62Z"/><path class="cls-21" d="M295.69,189.6l.57-1c3.73-1.89,7.49-4.28,11.78-1.93,1.21.67,1.82,2.43,2.7,3.69l.12-.13a7.17,7.17,0,0,1-2.44.84c-2.34-.06-4.76-.83-7-.43-2,.35-3.71,1.91-6.5,3.46C295.3,191.94,295.5,190.77,295.69,189.6Z"/><path class="cls-29" d="M512.85,219.89c5.27-3.29,10.12-6.46,16.65-4.59C522.67,220.17,518.42,222.7,512.85,219.89Z"/><path class="cls-30" d="M258.77,182.69a53.17,53.17,0,0,1-6.27,4.83c-.35.2-2.08-2-3.18-3.06l-3.89,2.9c-.38-.49-.77-1-1.15-1.48a69.23,69.23,0,0,1,6.54-4.58c.22-.13,1.77,2.07,2.91,3.44,1.11-.93,2.53-2.1,4-3.27Z"/><path class="cls-31" d="M234.77,221.79l-2.69-1,2.69-3.07,9.92,1.16C242.08,223.92,237.93,221.2,234.77,221.79Z"/><path class="cls-32" d="M329.82,193.28l-2.71,3.37L322,198.38l-.79-1.1c1.77-2.19,3.22-4.8,5.39-6.47C329.29,188.71,329.07,192,329.82,193.28Z"/><path class="cls-33" d="M303.18,147.35H288.39v-.75h14.8Z"/><path class="cls-23" d="M114.53,159.31c-5.39,1.59-10.79,3.15-16.17,4.78C83,168.74,68.09,174.27,55.69,185a3.91,3.91,0,0,1-2.29,1.19c-4.18-.21-8.34-.63-13.95-1.09,3.89-3.1,6.62-5.61,9.67-7.64,16.69-11.08,35.81-16.11,54.81-21.23,3.16-.85,7,1,10.6,1.62Z"/><path class="cls-24" d="M129.67,202.44l35.08-11.26.87,2.06-8.39,4.92.17.75c2.37-.79,4.7-1.7,7.12-2.31,2.13-.55,4.36-.74,6.54-1.09l.35,1.8c-10.18,3.42-20.31,7-30.56,10.16-2.26.7-5.48,2-6.59-2.44-.22-.88-3.21-1.06-4.92-1.57Z"/><path class="cls-24" d="M222.71,213.48,213.94,216l-.6-1.24,1.36-2.43c-5.94-3.54-12.11.27-20.79,8.48,3.75,0,6.47.21,9.14-.06s5.06-1,7.69-1c-4.06,4.6-18.83,6.18-22.73,2.89-.58-.5-.49-3,.16-3.57,8.89-7.43,18-14.45,30.76-10.52,1.6.5,2.82,2.21,4.22,3.36Z"/><path class="cls-34" d="M174.38,212.25c-5.45,5.15-12.94,5.66-20.65,2.45,1.73-7.51,26.74-15.6,36.3-11.73-.41,5.17-3.83,7.12-9.7,5.25l3.16-2.48c-9.37-3.42-14.82,4.24-22,5.85l.05,1.55c2.12,0,4.24.11,6.34,0S172.21,212.55,174.38,212.25Z"/><path class="cls-27" d="M175.79,252.1c-.14-3.91,2.49-4.48,5.3-4.19,8.12.84,16.21,1.89,25.4,3C195.88,255,186,254.68,175.79,252.1Z"/><path class="cls-35" d="M218.37,234.66l1.23-2.74,11.94-6.48,1,.95-4.29,5.23,1.63.66-8.76,4Z"/><path class="cls-36" d="M218.37,234.66l2.72,1.64-3.78,2.81.83,1.08c-9.12,2.62-9.12,2.62-10.6-2.77l1-.14,1.77-1.57Z"/><path class="cls-37" d="M220.13,182.79l-2.91,1.49,1.21,4c-2.81-.16-5.4-.21-8-.54-.55-.07-1.29-1.16-1.36-1.83s.34-2.3.8-2.41c3.28-.79,6.62-1.3,9.94-1.89Z"/><path class="cls-38" d="M205.05,189.35l-11.3-1.18c1.48-1.8,2.41-3.95,3.41-4C200.27,184.1,203,185.39,205.05,189.35Z"/><path class="cls-39" d="M210.31,235.71l-1.77,1.57a1.62,1.62,0,0,1-.13-.84Z"/><path class="cls-3" d="M208.41,236.44a1.62,1.62,0,0,0,.13.84l-1,.14Z"/><path d="M587.42,91.08l3.37,1.08a6.74,6.74,0,0,1-1.68.83C588.91,93,588.55,92.39,587.42,91.08Z"/><path class="cls-8" d="M346.1,225.05c-7.47,3.23-10.93,1.4-15.05-8C339,213.15,343.74,215.66,346.1,225.05Z"/></g></mask></defs><g id="Layer_2" data-name="Layer 2"><g id="index"><g class="cls-40"><rect class="cls-41" width="742.15" height="378.78"/></g></g></g></svg>