<svg xmlns="http://www.w3.org/2000/svg" viewBox="0 0 151.98 145.9"><defs><style>.cls-1{fill:#328b00;}</style></defs><g id="Layer_2" data-name="Layer 2"><g id="Layer_1-2" data-name="Layer 1"><path class="cls-1" d="M0,127.66V66.87A5.83,5.83,0,0,1,1.8,62.6a5.84,5.84,0,0,1,4.28-1.81H33.43a6.16,6.16,0,0,1,6.08,6.08v60.79a6.16,6.16,0,0,1-6.08,6.08H6.08a5.84,5.84,0,0,1-4.28-1.81A5.83,5.83,0,0,1,0,127.66ZM12.16,115.5a6,6,0,0,0,6.08,6.08,5.88,5.88,0,0,0,4.27-1.76,6,6,0,0,0,0-8.59,6,6,0,0,0-8.59,0A5.87,5.87,0,0,0,12.16,115.5Zm33.43,12.16V66.77a5.73,5.73,0,0,1,1.71-4.13,6.26,6.26,0,0,1,4.09-2q2.28-.18,7.22-5.6T68.2,43.6a139,139,0,0,1,9.59-11.4,14.67,14.67,0,0,0,2.95-4.56A30.93,30.93,0,0,0,82.4,23q.42-1.76,1.28-5.74.66-3.7,1.19-5.8a28.19,28.19,0,0,1,1.85-4.94A16.55,16.55,0,0,1,90,1.8,5.85,5.85,0,0,1,94.22,0a28.14,28.14,0,0,1,7.84,1,20.76,20.76,0,0,1,5.7,2.47,13.37,13.37,0,0,1,3.8,3.84,22.7,22.7,0,0,1,2.28,4.28A24.57,24.57,0,0,1,115,16.34a41.36,41.36,0,0,1,.47,4.27c0,.95,0,2.19,0,3.71a29.67,29.67,0,0,1-.9,7.21,37,37,0,0,1-1.81,5.7q-.9,2.1-2.61,5.32c-.19.38-.51,1-1,1.71a16.15,16.15,0,0,0-1,2.09,22.46,22.46,0,0,0-.76,2.28h26.31A18.51,18.51,0,0,1,152,66.87,20.83,20.83,0,0,1,146.75,81a23,23,0,0,1,1.43,7.22,19.73,19.73,0,0,1-4.09,13,19.48,19.48,0,0,1,0,11.12A18.53,18.53,0,0,1,139,121.3q.85,10.63-4.65,17.19-6.09,7.22-18.71,7.41H103.34a70.54,70.54,0,0,1-13.67-1.48q-7.41-1.47-11.55-2.75t-11.44-3.75q-11.69-4.09-15-4.18a6.25,6.25,0,0,1-4.27-1.85A5.67,5.67,0,0,1,45.59,127.66Z"/></g></g></svg>