<svg xmlns="http://www.w3.org/2000/svg" viewBox="0 0 151.98 145.9"><defs><style>.cls-1{fill:#d01c00;}</style></defs><g id="Layer_2" data-name="Layer 2"><g id="Layer_1-2" data-name="Layer 1"><path class="cls-1" d="M152,18.24V79a6.18,6.18,0,0,1-6.08,6.08H118.54A6.18,6.18,0,0,1,112.46,79V18.24A5.84,5.84,0,0,1,114.27,14a5.83,5.83,0,0,1,4.27-1.8H145.9a5.85,5.85,0,0,1,4.27,1.8A5.88,5.88,0,0,1,152,18.24ZM139.82,30.39a6.09,6.09,0,0,0-10.36-4.32,6,6,0,0,0,0,8.6,5.87,5.87,0,0,0,4.28,1.8,5.8,5.8,0,0,0,4.32-1.8A5.93,5.93,0,0,0,139.82,30.39ZM106.38,18.24V79.12a5.73,5.73,0,0,1-1.71,4.13,6.25,6.25,0,0,1-4.08,2q-2.28.19-7.22,5.6t-9.59,11.5a140.68,140.68,0,0,1-9.6,11.4,14.48,14.48,0,0,0-2.94,4.56,30.15,30.15,0,0,0-1.66,4.6q-.43,1.76-1.29,5.75-.66,3.7-1.18,5.79a28.33,28.33,0,0,1-1.86,4.94A16.35,16.35,0,0,1,62,144.09a5.84,5.84,0,0,1-4.27,1.81,28.62,28.62,0,0,1-7.84-1,20.85,20.85,0,0,1-5.69-2.47,13.29,13.29,0,0,1-3.8-3.85,21.55,21.55,0,0,1-2.28-4.27A23.18,23.18,0,0,1,37,129.56a39.41,39.41,0,0,1-.48-4.28c0-1-.05-2.18-.05-3.7a29.76,29.76,0,0,1,.91-7.22,38.26,38.26,0,0,1,1.8-5.7q.9-2.09,2.61-5.32c.19-.38.51-1,1-1.71a14.57,14.57,0,0,0,1-2.09,23.29,23.29,0,0,0,.76-2.28H18.24A17.54,17.54,0,0,1,5.41,91.85,17.51,17.51,0,0,1,0,79,20.84,20.84,0,0,1,5.22,64.87,22.87,22.87,0,0,1,3.8,57.66a19.73,19.73,0,0,1,4.08-13,19.62,19.62,0,0,1,0-11.11A18.48,18.48,0,0,1,13,24.6Q12.16,14,17.67,7.41,23.74.19,36.38,0H48.63A70.66,70.66,0,0,1,62.31,1.47c4.94,1,8.79,1.9,11.54,2.76S80.42,6.33,85.3,8q11.67,4.08,15,4.18A6.28,6.28,0,0,1,104.58,14,5.69,5.69,0,0,1,106.38,18.24Z"/></g></g></svg>