<svg xmlns="http://www.w3.org/2000/svg" viewBox="0 0 52.55 50.45"><defs><style>.cls-1{fill:#d0d9ff;}</style></defs><g id="Layer_2" data-name="Layer 2"><g id="Layer_1-2" data-name="Layer 1"><path class="cls-1" d="M0,44.14v-21a2,2,0,0,1,.62-1.48A2,2,0,0,1,2.1,21h9.46a2.12,2.12,0,0,1,2.1,2.1v21A2,2,0,0,1,13,45.62a2,2,0,0,1-1.48.62H2.1a2,2,0,0,1-1.48-.62A2,2,0,0,1,0,44.14Zm4.2-4.2A2.08,2.08,0,0,0,6.31,42a2,2,0,0,0,1.47-.61,2,2,0,0,0,.63-1.49,2,2,0,0,0-.63-1.48,2,2,0,0,0-1.47-.62,2,2,0,0,0-1.5.62A2.08,2.08,0,0,0,4.2,39.94Zm11.56,4.2v-21a2,2,0,0,1,.6-1.43A2.14,2.14,0,0,1,17.77,21c.52,0,1.36-.69,2.49-1.94s2.25-2.57,3.32-4a50.14,50.14,0,0,1,3.32-3.95,5.2,5.2,0,0,0,1-1.57A11.05,11.05,0,0,0,28.49,8q.15-.6.45-2c.15-.86.29-1.52.41-2A9.27,9.27,0,0,1,30,2.27,5.55,5.55,0,0,1,31.1.62,2,2,0,0,1,32.58,0a9.8,9.8,0,0,1,2.71.34,7.1,7.1,0,0,1,2,.86,4.49,4.49,0,0,1,1.31,1.33A7,7,0,0,1,39.36,4a7.87,7.87,0,0,1,.4,1.64,13.29,13.29,0,0,1,.16,1.48c0,.33,0,.75,0,1.28a10.61,10.61,0,0,1-.31,2.49,12.82,12.82,0,0,1-.63,2c-.21.49-.51,1.1-.9,1.84-.07.14-.18.33-.33.6a6,6,0,0,0-.36.72,6.1,6.1,0,0,0-.26.79h9.09a6.39,6.39,0,0,1,6.31,6.3A7.18,7.18,0,0,1,50.74,28a7.88,7.88,0,0,1,.5,2.49A6.82,6.82,0,0,1,49.82,35a6.61,6.61,0,0,1,0,3.84,6.35,6.35,0,0,1-1.77,3.09,7.89,7.89,0,0,1-1.61,6q-2.1,2.49-6.47,2.56H35.73A24.41,24.41,0,0,1,31,49.94c-1.7-.34-3-.66-4-.95s-2.27-.73-4-1.3a25,25,0,0,0-5.19-1.45,2.14,2.14,0,0,1-1.48-.64A2,2,0,0,1,15.76,44.14Z"/></g></g></svg>